<?xml version="1.0" encoding="UTF-8" standalone="no"?>
<!-- Created with Inkscape (http://www.inkscape.org/) -->

<svg
   xmlns:dc="http://purl.org/dc/elements/1.1/"
   xmlns:cc="http://creativecommons.org/ns#"
   xmlns:rdf="http://www.w3.org/1999/02/22-rdf-syntax-ns#"
   xmlns:svg="http://www.w3.org/2000/svg"
   xmlns="http://www.w3.org/2000/svg"
   xmlns:sodipodi="http://sodipodi.sourceforge.net/DTD/sodipodi-0.dtd"
   xmlns:inkscape="http://www.inkscape.org/namespaces/inkscape"
   width="744.09448819"
   height="1052.3622047"
   id="svg3427"
   version="1.1"
   inkscape:version="0.48.2 r9819"
   sodipodi:docname="icons.svg">
  <defs
     id="defs3429" />
  <sodipodi:namedview
     id="base"
     pagecolor="#ffffff"
     bordercolor="#666666"
     borderopacity="1.0"
     inkscape:pageopacity="0.0"
     inkscape:pageshadow="2"
     inkscape:zoom="0.35"
     inkscape:cx="375"
     inkscape:cy="520"
     inkscape:document-units="px"
     inkscape:current-layer="layer1"
     showgrid="true"
     inkscape:window-width="905"
     inkscape:window-height="612"
     inkscape:window-x="66"
     inkscape:window-y="20"
     inkscape:window-maximized="0">
    <inkscape:grid
       type="xygrid"
       id="grid3454" />
  </sodipodi:namedview>
  <metadata
     id="metadata3432">
    <rdf:RDF>
      <cc:Work
         rdf:about="">
        <dc:format>image/svg+xml</dc:format>
        <dc:type
           rdf:resource="http://purl.org/dc/dcmitype/StillImage" />
        <dc:title />
      </cc:Work>
    </rdf:RDF>
  </metadata>
  <g
     inkscape:label="Layer 1"
     inkscape:groupmode="layer"
     id="layer1">
    <path
       style="display:inline"
       inkscape:connector-curvature="0"
       d="m 271.86076,318.04602 c -0.56298,-0.0896 -0.57582,-1.63762 -0.57582,-1.63762 0,0 1.65428,-1.63767 2.01484,-3.83987 0.96988,0 1.56897,-2.34121 0.59893,-3.16494 0.0405,-0.86711 1.24667,-6.80686 -4.85991,-6.80686 -6.10658,0 -4.90034,5.93975 -4.85996,6.80686 -0.96999,0.82373 -0.371,3.16494 0.59894,3.16494 0.36051,2.2022 2.01483,3.83987 2.01483,3.83987 0,0 -0.0129,1.54805 -0.57581,1.63762 -1.81348,0.28855 -8.58541,3.27541 -8.58541,6.55071 l 11.40741,0 11.40741,0 c 0,-3.2753 -6.77192,-6.26216 -8.58545,-6.55071 z"
       id="path67-7-6" />
    <path
       style="display:inline"
       inkscape:connector-curvature="0"
       d="m 351.84593,332.20615 c -0.56298,-0.0896 -0.57582,-1.63762 -0.57582,-1.63762 0,0 1.65428,-1.63767 2.01484,-3.83987 0.96988,0 1.56897,-2.34121 0.59893,-3.16494 0.0405,-0.86711 1.24667,-6.80686 -4.85991,-6.80686 -6.10658,0 -4.90034,5.93975 -4.85996,6.80686 -0.96999,0.82373 -0.371,3.16494 0.59894,3.16494 0.36051,2.2022 2.01483,3.83987 2.01483,3.83987 0,0 -0.0129,1.54805 -0.57581,1.63762 -1.81348,0.28855 -8.58541,3.27541 -8.58541,6.55071 l 11.40741,0 11.40741,0 c 0,-3.2753 -6.77192,-6.26216 -8.58545,-6.55071 z"
       id="path67-7-69-68" />
    <path
       style="display:inline"
       inkscape:connector-curvature="0"
       d="m 380.43134,331.65544 c -0.56298,-0.0896 -0.57582,-1.63762 -0.57582,-1.63762 0,0 1.65428,-1.63767 2.01484,-3.83987 0.96988,0 1.56897,-2.34121 0.59893,-3.16494 0.0405,-0.86711 1.24667,-6.80686 -4.85991,-6.80686 -6.10658,0 -4.90034,5.93975 -4.85996,6.80686 -0.96999,0.82373 -0.371,3.16494 0.59894,3.16494 0.36051,2.2022 2.01483,3.83987 2.01483,3.83987 0,0 -0.0129,1.54805 -0.57581,1.63762 -1.81348,0.28855 -8.58541,3.27541 -8.58541,6.55071 l 11.40741,0 11.40741,0 c 0,-3.2753 -6.77192,-6.26216 -8.58545,-6.55071 z"
       id="path67-7-63-5-3" />
    <path
       style="display:inline"
       inkscape:connector-curvature="0"
       d="m 469.85295,327.26048 c -4.5e-4,-0.0253 -0.001,-0.0502 -0.002,-0.0754 -0.001,-0.0511 -0.002,-0.10223 -0.004,-0.1533 -0.35919,-11.30643 -13.7468,-22.46312 -13.7468,-22.46312 0,0 -13.38776,11.15669 -13.74689,22.46333 -0.002,0.0512 -0.003,0.10216 -0.004,0.15338 -4.5e-4,0.0252 -0.001,0.0502 -0.002,0.0754 -0.001,0.0774 -0.002,0.15489 -0.002,0.23269 0,0.0848 9e-4,0.16914 0.003,0.25353 1.4e-4,0.007 2.1e-4,0.014 4.5e-4,0.021 0.14607,7.46956 6.24681,13.48004 13.75169,13.48004 7.5048,0 13.60547,-6.01048 13.75183,-13.48025 1.4e-4,-0.007 2.3e-4,-0.014 4.5e-4,-0.021 0.002,-0.0844 0.003,-0.16886 0.003,-0.25353 0,-0.0778 -9e-4,-0.15532 -0.002,-0.23276 z m -4.58457,0.40254 -2.2e-4,0.0145 c -0.0472,2.41016 -1.02201,4.66852 -2.74473,6.35971 -1.72443,1.69327 -4.00571,2.6258 -6.42304,2.6258 -0.44639,0 -0.88812,-0.032 -1.32261,-0.0945 4.98095,-2.96752 8.31791,-8.40703 8.31791,-14.62598 0,-0.69691 -0.0423,-1.38385 -0.12365,-2.05891 1.44253,2.64851 2.22312,5.11505 2.29253,7.29382 l 1.5e-4,0.005 c 10e-4,0.034 0.002,0.0678 0.003,0.10187 l 9e-4,0.0519 c 9.1e-4,0.0521 0.002,0.10452 0.002,0.15682 0,0.0567 -6.8e-4,0.11326 -0.002,0.16978 z"
       id="path67" />
    <path
       style="display:inline"
       inkscape:connector-curvature="0"
       d="m 158.11111,321.90186 -13.33333,0 0,-5.33333 13.33333,0 0,-5.33333 8,8 -8,8 z m 26.66667,-21.33333 0,34.66667 -16,8 0,-8 -16,0 0,-10.66667 2.66667,0 0,8 13.33333,0 0,-24 10.66667,-5.33333 -24,0 0,10.66666 -2.66667,0 0,-13.33333 z"
       id="path67-3" />
    <path
       style="display:inline"
       inkscape:connector-curvature="0"
       d="m 215.19445,315.36021 13.33333,0 0,5.33333 -13.33333,0 0,5.33333 -8,-8 8,-8 z m -26.66667,21.33333 0,-34.66667 16,0 16,0 0,10.66667 -2.66667,0 0,-8 -23.33333,0 10,5.2 0,24.175 c -26.34872,-0.0704 6.53777,-0.0417 13.33333,-0.0417 l 0,-10.66666 2.66667,0 0,13.33333 -15.75,-0.12498 -0.25,7.97146 z"
       id="path67-3-48-9"
       sodipodi:nodetypes="ccccccccccccccccccccccccc" />
    <path
       style="fill:#000000;fill-opacity:1;fill-rule:evenodd;stroke:#000000;stroke-width:0.8888889px;stroke-linecap:butt;stroke-linejoin:miter;stroke-opacity:1;display:inline"
       d="m 559.7778,316.56853 0,10 -15,0 0,10 -15,0 0,10 45,0 0,-30 z m 7,11 3,3 -12,13 -3,-3 z"
       id="path5830-3-1"
       inkscape:connector-curvature="0"
       sodipodi:nodetypes="cccccccccccccc" />
    <path
       style="display:inline"
       inkscape:connector-curvature="0"
       d="M 114.86154,313.95383 98.65331,300.06106 c 0.75482,-1.4182 1.18312,-3.03654 1.18312,-4.75514 0,-5.59772 -4.53786,-10.1356 -10.1356,-10.1356 -1.02391,0 -2.01205,0.15248 -2.94376,0.43477 l 5.85578,5.85573 c 0.87595,0.87595 0.87595,2.30942 0,3.18536 l -3.57175,3.57173 c -0.87596,0.87595 -2.30937,0.87595 -3.18532,0 L 80,292.36218 c -0.28231,0.93164 -0.43477,1.91979 -0.43477,2.94374 0,5.59772 4.53786,10.1356 10.1356,10.1356 1.71862,0 3.33693,-0.42835 4.75515,-1.18325 l 13.8928,16.20827 c 0.80621,0.94049 2.18253,0.99334 3.05842,0.11748 l 3.57182,-3.57182 c 0.87588,-0.87586 0.82302,-2.25217 -0.11748,-3.05837 z"
       id="path67-7" />
  </g>
</svg>
